<svg xmlns="http://www.w3.org/2000/svg" width="160" height="28" viewBox="0 0 160 28" fill="none"> <path d="M33.396 15.43C33.396 19.678 35.916 22.234 39.984 22.234C43.35 22.234 45.906 20.308 46.428 16.996H42.738C42.468 18.238 41.478 19.084 40.11 19.084C38.472 19.084 37.32 17.878 37.32 15.43C37.32 13 38.472 11.794 40.11 11.794C41.478 11.794 42.414 12.586 42.684 13.864H46.392C45.87 10.57 43.332 8.644 39.984 8.644C35.916 8.644 33.396 11.2 33.396 15.43ZM53.059 15.448C53.059 12.874 54.481 11.794 55.993 11.794C57.505 11.794 58.927 12.874 58.927 15.448C58.927 18.022 57.505 19.084 55.993 19.084C54.481 19.084 53.059 18.022 53.059 15.448ZM62.833 15.448C62.833 11.146 59.989 8.644 55.993 8.644C51.997 8.644 49.153 11.146 49.153 15.448C49.153 19.75 51.997 22.234 55.993 22.234C59.989 22.234 62.833 19.75 62.833 15.448ZM64.4241 8.95L68.7801 22H72.9021L77.2401 8.95H73.2441L70.8501 17.554L68.5101 8.95H64.4241ZM83.8847 8.95H80.1227V22H83.8847V8.95ZM96.1223 15.466C96.1223 18.436 94.6463 18.958 92.5763 18.958H91.7843V11.992H92.5763C94.6463 11.992 96.1223 12.496 96.1223 15.466ZM88.0223 8.95V22H92.5223C96.7163 22 100.046 20.434 100.046 15.466C100.046 10.516 96.7163 8.95 92.5223 8.95H88.0223ZM112.238 18.742V15.61H103.238V18.742H112.238ZM120.667 22V8.95H117.841C117.301 10.264 116.491 10.822 114.187 10.876V13.504H117.067V22H120.667ZM131.688 13.252C131.688 14.53 130.86 15.16 129.906 15.16C128.988 15.16 128.16 14.512 128.16 13.252C128.16 11.956 128.97 11.308 129.906 11.308C130.86 11.308 131.688 11.956 131.688 13.252ZM129.744 19.552C128.898 19.552 128.214 19.192 128.088 18.418H124.758C124.812 20.56 126.504 22.234 129.546 22.234C133.542 22.234 135.414 19.174 135.414 15.124C135.414 11.218 133.524 8.644 129.906 8.644C126.792 8.644 124.452 10.282 124.452 13.306C124.452 16.42 126.774 17.842 128.79 17.842C129.996 17.842 131.094 17.554 131.796 16.816C131.796 18.508 130.896 19.552 129.744 19.552Z" fill="#003188"></path> <path d="M139.864 5.544V12H140.956V5.544H139.864ZM139.864 3.3V4.62H140.956V3.3H139.864ZM143.78 5.544H142.688V12H143.78V8.496C143.78 7.104 144.428 6.384 145.484 6.384C146.732 6.384 146.9 7.248 146.9 8.244V12H147.992V7.92C147.992 6.444 147.428 5.436 145.868 5.436C144.776 5.436 144.152 5.904 143.78 6.516V5.544ZM149.902 5.544H149.002V6.42H149.902V12H150.994V6.42H152.206V5.544H150.994V5.016C150.994 4.344 151.09 4.212 151.666 4.212H152.206V3.3H151.642C150.166 3.3 149.902 3.732 149.902 5.076V5.544ZM153.897 8.796C153.897 7.032 154.833 6.396 155.829 6.396C156.825 6.396 157.761 7.068 157.761 8.796C157.761 10.452 156.825 11.196 155.829 11.196C154.833 11.196 153.897 10.524 153.897 8.796ZM155.829 5.436C154.329 5.436 152.733 6.456 152.733 8.796C152.733 11.136 154.329 12.156 155.829 12.156C157.329 12.156 158.925 11.136 158.925 8.796C158.925 6.456 157.329 5.436 155.829 5.436Z" fill="#003188"></path> <path d="M11.1153 3.88897H11.8075V7.34047L11.3707 7.40447C11.1257 7.43647 10.7315 7.51622 10.4868 7.57497C10.231 7.63897 10.0233 7.66547 10.002 7.63897C9.91675 7.54847 8.713 4.58172 8.73975 4.53397C8.75575 4.51272 8.8835 4.44872 9.022 4.39547C9.1605 4.34222 9.28825 4.29422 9.299 4.28372C9.33625 4.25172 9.08075 3.67647 9.02725 3.67647C8.96325 3.67647 6.62525 4.63522 6.5825 4.68322C6.56125 4.69922 6.60375 4.85372 6.6785 5.01872L6.81175 5.32222L7.11 5.18897C7.26975 5.11972 7.42425 5.07722 7.44025 5.09847C7.48825 5.15172 8.7185 8.13972 8.7185 8.19822C8.7185 8.21947 8.532 8.35272 8.3085 8.48047C8.0795 8.61372 7.74925 8.83197 7.57875 8.97047C7.403 9.10372 7.2485 9.21547 7.2325 9.21547C7.21125 9.21547 6.6625 8.67747 6.00225 8.01697L4.80925 6.81872L5.27775 6.33922L4.80925 5.85972L3.8345 6.82897L2.85975 7.80372L3.0995 8.04347L3.33925 8.27772L3.81875 7.80922L5.017 9.00222C5.6775 9.66272 6.2155 10.2112 6.2155 10.2325C6.2155 10.2485 6.10375 10.403 5.9705 10.5787C5.832 10.7492 5.61375 11.0795 5.4805 11.303C5.35275 11.532 5.2195 11.7185 5.19825 11.7185C5.13975 11.7185 2.15175 10.4882 2.0985 10.4402C2.07725 10.4242 2.11975 10.2697 2.189 10.11L2.32225 9.81172L2.01875 9.67847C1.85375 9.60397 1.69925 9.56122 1.68325 9.58247C1.63525 9.62522 0.6765 11.9685 0.6765 12.0272C0.6765 12.0805 1.25175 12.3362 1.28375 12.299C1.2945 12.2882 1.34225 12.1605 1.3955 12.022C1.44875 11.8835 1.51275 11.7557 1.534 11.7397C1.5605 11.729 2.27975 12.006 3.1425 12.3575L4.7025 13.0075L4.59075 13.439C4.52675 13.6787 4.44175 14.0887 4.40425 14.3445L4.3405 14.8075H0.88925V14.115H0.25V16.8847H0.889V16.1925H4.3405L4.4045 16.656C4.44175 16.9117 4.527 17.3165 4.5855 17.556L4.7025 17.9925L3.142 18.637C2.27925 18.9937 1.56025 19.2707 1.5335 19.26C1.51225 19.244 1.44825 19.1162 1.395 18.9777C1.34175 18.8392 1.29375 18.7115 1.28325 18.7007C1.25125 18.6635 0.676 18.9192 0.676 18.9725C0.676 19.0097 1.1235 20.1175 1.60275 21.2627L1.688 21.4597L2.00225 21.3212L2.32175 21.1827L2.18875 20.89C2.1195 20.7247 2.077 20.5757 2.09825 20.5597C2.15675 20.5117 5.13425 19.2815 5.19275 19.2815C5.21925 19.2815 5.3525 19.468 5.48025 19.697C5.6135 19.9207 5.83175 20.251 5.97025 20.4215C6.1035 20.5972 6.21525 20.7517 6.21525 20.7677C6.21525 20.789 5.67725 21.3375 5.01675 21.998L3.8185 23.191L3.339 22.7222L3.09925 22.9565L2.8595 23.1962L3.83425 24.171L4.809 25.1402L5.2775 24.6607L4.809 24.1812L6.002 22.983C6.6625 22.3225 7.211 21.7847 7.227 21.7847C7.243 21.7847 7.43475 21.918 7.653 22.083C7.87125 22.2482 8.2015 22.4665 8.388 22.5677C8.62775 22.701 8.71825 22.7807 8.70225 22.8447C8.665 22.9832 7.4825 25.854 7.44 25.902C7.424 25.9232 7.2695 25.8807 7.10975 25.8115L6.8115 25.6782L6.705 25.9285C6.6465 26.067 6.58775 26.2107 6.57725 26.248C6.5665 26.2905 6.966 26.4877 7.7065 26.7965C8.335 27.0575 8.8995 27.2865 8.9635 27.3025C9.05925 27.3292 9.09675 27.2865 9.19775 27.031C9.26175 26.8712 9.3095 26.7275 9.299 26.7167C9.28825 26.7062 9.1605 26.6582 9.022 26.605C8.8835 26.5517 8.75575 26.4877 8.73975 26.4665C8.729 26.4397 9.006 25.7207 9.3575 24.858L10.0075 23.2975L10.439 23.4092C10.6788 23.4732 11.0888 23.5582 11.3445 23.5957L11.808 23.6597V27.1112H11.1155V27.75H13.8848V27.111H13.1925V23.6595L13.656 23.5955C13.9117 23.5582 14.3165 23.473 14.556 23.409L14.9925 23.2975L15.637 24.858C15.9937 25.7207 16.2708 26.4397 16.26 26.4665C16.244 26.4877 16.1163 26.5517 15.9778 26.605C15.8393 26.6582 15.7115 26.7062 15.7007 26.7167C15.6635 26.7487 15.9193 27.324 15.9725 27.324C16.031 27.324 18.3745 26.3652 18.4173 26.3172C18.4385 26.3012 18.396 26.1467 18.3215 25.9817L18.1882 25.6782L17.89 25.8115C17.7303 25.8807 17.5758 25.9235 17.5598 25.902C17.5118 25.8435 16.2815 22.8607 16.2815 22.8022C16.2815 22.7755 16.4305 22.669 16.617 22.568C16.7983 22.4615 17.1283 22.2485 17.3468 22.0832C17.565 21.9182 17.757 21.785 17.7728 21.785C17.7885 21.785 18.3373 22.323 18.9978 22.9832L20.1908 24.1815L19.7218 24.661L19.9563 24.9007L20.196 25.1405L21.1708 24.1657L22.14 23.191L21.6605 22.7222L21.181 23.191L19.9828 21.998C19.3223 21.3375 18.7843 20.789 18.7843 20.773C18.7843 20.757 18.9175 20.5652 19.0825 20.347C19.2477 20.1287 19.4608 19.7985 19.5673 19.612C19.6685 19.4307 19.775 19.2817 19.8015 19.2817C19.86 19.2817 22.8428 20.512 22.9013 20.56C22.9225 20.576 22.88 20.7305 22.8108 20.8902L22.6775 21.1885L22.981 21.3217C23.1463 21.3962 23.3005 21.439 23.3165 21.4175C23.3645 21.375 24.3233 19.0315 24.3233 18.9727C24.3233 18.9195 23.748 18.6637 23.716 18.701C23.7055 18.7117 23.6575 18.8395 23.6043 18.978C23.551 19.1165 23.487 19.2442 23.4658 19.2602C23.439 19.2762 22.7148 18.994 21.8573 18.6372L20.2975 17.9925L20.4093 17.5557C20.4733 17.316 20.5583 16.9112 20.5958 16.6557L20.6598 16.1922H24.1113V16.8847H24.75V14.1152H24.111V14.8075H20.6595L20.5955 14.344C20.5583 14.0882 20.473 13.6835 20.409 13.444L20.2975 13.0075L21.858 12.363C22.7155 12.0062 23.4397 11.7237 23.4665 11.7397C23.4877 11.7557 23.5518 11.8835 23.605 12.022C23.6583 12.1605 23.7063 12.2882 23.7168 12.299C23.7488 12.3362 24.324 12.0805 24.324 12.0272C24.324 11.9687 23.3653 9.62522 23.3173 9.58247C23.3013 9.56122 23.1468 9.60372 22.9818 9.67847L22.6783 9.81172L22.8115 10.11C22.8807 10.2697 22.9235 10.4242 22.902 10.4402C22.8488 10.4882 19.8608 11.7185 19.8023 11.7185C19.781 11.7185 19.6477 11.532 19.52 11.303C19.3867 11.0792 19.1685 10.749 19.03 10.5787C18.8968 10.403 18.785 10.2485 18.785 10.2325C18.785 10.2112 19.323 9.66247 19.9835 9.00222L21.1818 7.80922L21.6613 8.27772L22.1408 7.80922L21.1715 6.83447L20.1968 5.85972L19.957 6.09947L19.7225 6.33922L20.1915 6.81872L18.9985 8.01697C18.338 8.67747 17.7895 9.21547 17.7682 9.21547C17.7522 9.21547 17.5978 9.10372 17.422 8.97047C17.2515 8.83197 16.9213 8.61372 16.6975 8.48047C16.4685 8.35272 16.282 8.21947 16.282 8.19822C16.282 8.13972 17.5123 5.15172 17.5603 5.09847C17.5763 5.07722 17.7308 5.11972 17.8905 5.18897L18.1887 5.32222L18.322 5.01872C18.3965 4.85372 18.4393 4.69922 18.4178 4.68322C18.3753 4.63522 16.0318 3.67647 15.973 3.67647C15.9198 3.67647 15.664 4.25172 15.7012 4.28372C15.712 4.29447 15.8398 4.34222 15.9783 4.39547C16.1168 4.44872 16.2445 4.51272 16.2605 4.53397C16.287 4.57647 15.0783 7.54847 14.9983 7.63897C14.977 7.66547 14.7692 7.63897 14.5135 7.57497C14.2685 7.51647 13.8743 7.43647 13.6348 7.40447L13.1928 7.34047V3.88897H13.8853V3.24997H11.1153V3.88897ZM13.938 8.83697C16.3348 9.38547 18.199 11.0687 18.9713 13.3855C19.6318 15.3667 19.3175 17.5557 18.1298 19.3347C17.7888 19.846 16.8463 20.7887 16.3348 21.1297C13.7358 22.8715 10.3483 22.6637 8.026 20.629C6.8915 19.633 6.13525 18.3335 5.81025 16.8315C5.67175 16.1977 5.67175 14.8022 5.81025 14.1685C6.444 11.2232 8.761 9.09797 11.7543 8.71447C12.175 8.66122 13.496 8.73572 13.938 8.83697Z" fill="#003188"></path> <path d="M11.93 10.7597C11.1738 10.8662 10.3907 11.1592 9.79425 11.5692C8.399 12.5175 7.57325 14.2962 7.7545 15.9475C7.9195 17.3962 8.66 18.6585 9.79975 19.436C11.3975 20.5225 13.6025 20.5225 15.2005 19.436C17.0965 18.1417 17.7943 15.58 16.8143 13.492C16.058 11.8727 14.5348 10.8502 12.7398 10.7437C12.4788 10.7277 12.1113 10.7385 11.93 10.7597Z" fill="#003188"></path> </svg>
