<?xml version="1.0" encoding="UTF-8"?>
<svg version="1.1" viewBox="0 0 500 500" xmlns="http://www.w3.org/2000/svg" xmlns:inkpad="http://taptrix.com/inkpad/svg_extensions">
 <rect width="500" height="500" fill-opacity="0"/>
 <g transform="matrix(.81002 0 0 .81002 18.395 46.722)">
  <g transform="matrix(1.0285 0 0 1.0285 60.555 -57.903)" inkpad:layerName="Layer 1">
   <path d="m255.5 144.56 104.78 86.013-13.301 16.204-104.78-86.013 13.302-16.204z" fill="#d0d0d0"/>
   <g fill="#8b6477">
    <path d="m258.83 191.46 39.196 32.147-4.594 5.601-39.195-32.147 4.593-5.601z"/>
    <path d="m241.31 212.83 39.196 32.147-4.594 5.601-39.196-32.147 4.594-5.601z"/>
    <path d="m224.36 233.49 39.195 32.147-4.594 5.601-39.195-32.147 4.594-5.601z"/>
    <path d="m205.87 256.04 39.196 32.147-4.594 5.601-39.196-32.147 4.594-5.601z"/>
   </g>
   <path d="m364.83 78.449 38.988 32.004-180.73 220.17-38.988-32.004 180.73-220.17z" fill="#bb87a0"/>
   <path d="m380.6 91.394 7.448 6.1138-180.73 220.17-7.448-6.113 180.73-220.17z" fill="#a3758b"/>
   <path d="m355.89 56.301 71.401 58.611-10.603 12.917-71.401-58.61 10.603-12.917z" fill="#8f677b"/>
   <path d="m194.9 271.7 52.49 43.087-26.447 32.219-52.49-43.087 26.447-32.219z" fill="#975751"/>
   <path d="m270.28 174.41-161.75 197.05 23.043 18.916-17.745 21.618 11.763 9.656 17.746-21.618 23.043 18.915 161.75-197.05-57.849-47.486z" fill="#d0d0d0" fill-opacity=".66524"/>
  </g>
  <path d="m71.852 501.91 101.26-123.35l4.6516 3.8184-81.81 99.661z" fill="#aaa"/>
  <path d="m167.73 380.37 6.1161-7.4506 9.635 7.9092-6.1161 7.4506z" fill="#d53939"/>
  <path d="m167.96 374.33 16.128-19.647 15.28 12.543-16.128 19.647z" fill="#d1d1d1"/>
 </g>
</svg>
